v 0.7334963083 -18.68847084 -0.7797977328
vn 0.9977300763 -0.06695143133 -0.007222875487
v 4.008256838e-06 7.202845573 -20.20956993
vn 1.84058635e-07 0.4337526262 -0.901031971
v 0.7686679959 -16.99090004 -9.063860893
vn 0.9942744374 -0.0944069773 -0.05005607381
v 0.7978971004 -12.69034863 -15.94824219
vn 0.9986149073 -0.03428450972 -0.03990992904
v 0.8167226911 -6.45573616 -20.38228035
vn 0.9986380339 -0.01267977152 -0.05060951039
v 0.8223206997 0.7522262335 -21.70078659
vn 0.9980647564 0.01493408531 -0.06036345288
v 0.8139083982 7.83402586 -19.71942711
vn 0.9978176355 0.04251962155 -0.05051799864
v 0.7928231955 13.71993446 -14.75318527
vn 0.9996425509 0.0247910209 -0.01000890881
v 0.7657266259 17.38920021 -8.371077538
vn 0.1620665789 0.8640371561 -0.4766279459
v -1.023958475e-06 17.38920784 8.371056557
vn -5.808002967e-08 0.9419612885 0.3357215822
v -2.995341902e-06 7.202857018 20.20956421
vn -2.015701028e-07 0.4337532818 0.901031673
v -2.009650188e-06 -7.202833652 20.20957375
vn -1.840587061e-07 -0.4337520599 0.901032269
v 1.361170376e-08 -17.38920021 8.371080399
vn -4.083265992e-08 -0.94196105 0.3357222378
v 3.022565124e-06 -17.38920021 -8.371082306
vn 4.083265992e-08 -0.94196105 -0.3357222378
v 4.993948551e-06 -7.202837944 -20.20957184
vn 2.190817554e-07 -0.433752358 -0.9010321498
v 3.022565124e-06 13.30911827 -15.46773624
vn 7.197618146e-08 0.7580189109 -0.6522325873
v -26.06859398 2.93979907 -3.99999999e-06
vn -0.9899740219 0.13935332 0.02306629717
v -26.06859589 2.716020107 -1.125017047
vn -0.9946008325 0.06436763704 -0.08140034974
v -26.06860161 9.999999975e-07 -4.999999874e-06
vn -1 8.110013283e-08 -2.835758437e-07
v -26.06859398 2.078752041 -2.078756094
vn -0.943297863 0.2480536997 -0.2205866426
v -26.06859398 1.125012994 -2.716023922
vn -0.8978537321 0.1984674931 -0.3930258155
v -26.06859398 -4.466250794e-24 -2.939802885
vn -0.9416770935 0.04238230735 -0.3338381946
v -26.06859398 -1.12501204 -2.716025114
vn -0.9902849197 -0.03570637479 -0.1343905926
v -26.06859398 -2.078751087 -2.078757048
vn -0.9902053475 -0.07684616745 -0.1165679246
v -26.06859589 -2.716020107 -1.125017047
vn -0.9429230094 -0.3006857038 -0.1431234777
v -26.06859589 -2.93979907 -3.99999999e-06
vn -0.8978540301 -0.4390582442 -0.03295496479
v -26.06859398 -2.716020107 1.125007987
vn -0.8978537917 -0.4182487428 0.1375737041
v -26.06859589 -2.078751087 2.078747988
vn -0.8978540301 -0.3337645829 0.2871574163
v -26.06859589 -1.125010967 2.716016054
vn -0.8978539705 -0.1984671354 0.3930254877
v -26.06859589 1.999999995e-06 2.939794064
vn -0.9428983927 -0.04020270333 0.330645293
v -26.06859589 1.125013947 2.7160151
vn -0.9918451905 -0.03514677659 0.1225062534
v -26.06859589 2.078753948 2.078744888
vn -0.9928773642 0.06003545597 0.1029092893
v -26.06859398 2.716021061 1.125005007
vn -0.9998591542 -0.01373447664 0.009646357968
v -26.62818527 1.110985994 4.232615948
vn -0.9850172997 -0.1696635187 0.03090712428
v -26.62818336 3.827006102 2.417825937
vn -0.9664949179 0.2291119993 -0.1157377735
v -27.04937363 2.538139105 3.383658886
vn -0.9987053871 -0.03930109367 -0.03229556233
v -26.11811829 4.278713226 4.632040977
vn -0.9170062542 0.3311593831 0.2223353833
v -26.52044106 4.346374035 -1.869223952
vn -0.9739220142 -0.172740683 -0.147093609
v -26.52044296 4.346375942 2.288276911
vn -0.9725887179 -0.1871126443 0.1380579919
v -26.68243408 -0.8064460158 -4.038265228
vn -0.9990326762 -0.0002033547789 0.04397351667
v -26.68243408 -2.408328056 -3.495851994
vn -0.9965746403 -0.04594430327 -0.06876136363
v -25.81295204 -2.954356909 -5.198788166
vn -0.8980441689 -0.1843668818 -0.3994064331
v -23.34174919 12.29602146 -5.919250965
vn -0.7014036179 0.6595606208 -0.2702087164
v -25.98066139 6.654558182 -3.203478098
vn -0.976211369 0.195838213 -0.09305261821
v -25.98066139 7.202842236 -4.999999874e-06
vn -0.9742261767 0.2244695723 -0.02228921093
v -23.3417511 13.30911827 -3.99999999e-06
vn -0.6927176714 0.7204959393 -0.03206020221
v -23.34174919 9.410967827 -10.93734455
vn -0.7199345827 0.5021030307 -0.4791521132
v -25.98066139 5.093177795 -5.919250965
vn -0.9794415236 0.1372317523 -0.1478570551
v -23.34174919 5.09318018 -14.29032803
vn -0.7382983565 0.2571760714 -0.623519063
v -25.98065948 2.75640893 -7.733871937
vn -0.9819759727 0.05962265655 -0.1793552786
v -23.34174919 1.999999995e-06 -15.46774101
vn -0.7445652485 -0.04004807025 -0.6663473248
v -25.98065948 9.999999975e-07 -8.37108326
vn -0.9824667573 -0.02547222748 -0.1846896708
v -23.34174919 -5.093175888 -14.29032993
vn -0.7341994643 -0.3287172914 -0.5940505862
v -25.98065948 -2.756407022 -7.73387289
vn -0.9806762934 -0.1073097438 -0.1635806859
v -23.34174919 -9.410964966 -10.93734837
vn -0.7145749927 -0.5527204871 -0.428815335
v -25.98066139 -5.093177795 -5.919252872
vn -0.9775202274 -0.1749000251 -0.1177462488
v -23.34174919 -12.29602146 -5.919252872
vn -0.6978860497 -0.6849828959 -0.2091732174
v -25.98066139 -6.654560089 -3.203479052
vn -0.97479105 -0.2168756425 -0.05241534859
v -23.3417511 -13.30911827 -3.99999999e-06
vn -0.6927176714 -0.7204959393 0.03205953538
v -25.98066139 -7.202842712 -4.999999874e-06
vn -0.9742261767 -0.2244694382 0.02228901535
v -23.34175301 -12.29602146 5.919243813
vn -0.7014037371 -0.6595605016 0.2702086568
v -25.98066139 -6.654560089 3.203469992
vn -0.9762114286 -0.1958378851 0.09305238724
v -23.34175301 -9.410964012 10.93734074
vn -0.7199348211 -0.5021027923 0.4791520238
v -25.98066139 -5.093177795 5.919242859
vn -0.9794415832 -0.1372318715 0.1478567421
v -23.34175301 -5.093173981 14.29032421
vn -0.7382987142 -0.2571755648 0.6235188246
v -25.9806633 -2.756406069 7.733864784
vn -0.9819760323 -0.05962284282 0.1793550551
v -23.34175301 7.99999998e-06 15.46773243
vn -0.7445654869 0.04004878178 0.6663469672
v -25.9806633 3.99999999e-06 8.371073723
vn -0.9824667573 0.02547243424 0.1846895069
v -23.34175301 5.093187809 14.29031658
vn -0.7341996431 0.3287179768 0.5940499902
v -25.9806633 2.756412983 7.733859539
vn -0.9806762934 0.1073101833 0.1635802388
v -23.34175301 9.41097641 10.93732643
vn -0.7145751715 0.552720964 0.4288145602
v -25.98066139 5.093183041 5.919236183
vn -0.977520287 0.1749002934 0.1177455038
v -23.34175301 12.29602718 5.919227123
vn -0.6978863478 0.6849828362 0.2091725767
v -25.98066139 6.654561043 3.203459978
vn -0.9747911692 0.21687527 0.05241491273
v -16.24509239 16.06552505 -7.733871937
vn -0.3327419758 0.8836898208 -0.3292037845
v -16.2450943 17.38920021 -3.000000106e-06
vn -0.326603204 0.9450731874 -0.01292296592
v -16.24509239 12.29602146 -14.29032803
vn -0.3480819464 0.7008978724 -0.6225601435
v -16.24509048 6.654561043 -18.67120934
vn -0.3652659655 0.3889594674 -0.845748961
v -16.24509048 3.000000106e-06 -20.20957184
vn -0.372644037 -0.01713522337 -0.9278161526
v -16.24509048 -6.65455389 -18.67121315
vn -0.3640811145 -0.4186322689 -0.8319807649
v -16.24509239 -12.29601765 -14.29033089
vn -0.3466339707 -0.7205239534 -0.600574851
v -16.24509239 -16.06552505 -7.73387289
vn -0.3318456709 -0.8929883838 -0.304056257
v -16.2450943 -17.38920021 -3.000000106e-06
vn -0.3266032338 -0.9450731874 0.01292236615
v -16.24509621 -16.06552505 7.733868122
vn -0.3327420354 -0.8836897612 0.3292038143
v -16.24509621 -12.29601765 14.29032612
vn -0.3480820954 -0.7008976936 0.6225602627
v -16.24509811 -6.654551983 18.67121124
vn -0.3652660847 -0.38895908 0.8457490802
v -16.24509811 1.100000009e-05 20.20956802
vn -0.372644335 0.01713621989 0.9278160334
v -16.24509811 6.654571056 18.6711998
vn -0.364081502 0.4186332822 0.8319800496
v -16.24509621 12.29603386 14.290308
vn -0.3466342986 0.7205246687 0.6005737782
v -16.24509621 16.06553268 7.733843803
vn -0.33184582 0.892988503 0.3040556908
v -7.874013901 17.38920021 -8.371079445
vn -0.08777183294 0.9559429884 -0.2801234126
v -7.874016285 18.82193565 -1.999999995e-06
vn -0.0866349414 0.9947071671 0.05524488911
v -7.874012947 13.30911827 -15.46773624
vn -0.09190140665 0.7942827344 -0.6005573273
v -7.874011993 7.20284462 -20.20957184
vn -0.09726483375 0.493961215 -0.8640265465
v -7.874011993 3.99999999e-06 -21.87468338
vn -0.100428015 0.07442803681 -0.9921565652
v -7.87401104 -7.202837944 -20.20957375
vn -0.09873493016 -0.3662206531 -0.9252750278
v -7.874011993 -13.30911255 -15.46774101
vn -0.09366568923 -0.7113617659 -0.6965566874
v -7.874011993 -17.38920021 -8.37108326
vn -0.08884760737 -0.9172635674 -0.3882443607
v -7.874013901 -18.82193565 -9.999999975e-07
vn -0.0866349265 -0.9947071671 -0.05524540693
v -7.874014378 -17.38920021 8.371079445
vn -0.08777193725 -0.9559429288 0.280123502
v -7.874017239 -13.30911255 15.46774101
vn -0.09190159291 -0.794282496 0.6005576253
v -7.874017715 -7.202833652 20.20957184
vn -0.09726496041 -0.4939606786 0.8640268445
v -7.874017715 1.200000042e-05 21.87467957
vn -0.1004281864 -0.07442724705 0.9921566248
v -7.874019623 7.202857018 20.2095623
vn -0.09873525053 0.3662215471 0.9252746105
v -7.874017715 13.30913162 15.46771908
vn -0.09366600215 0.7113626003 0.6965557933
v -7.874017239 17.38920784 8.371055603
vn -0.08884773403 0.9172639251 0.3882434964
v 0.6649220586 2.137186289 15.37163544
vn 0.9999909997 1.227246582e-16 0.004245669115
v 0.7313965559 -2.688828707 -0.2852432728
vn 0.9999909997 1.227246582e-16 0.004245669115
v 0.752736032 -11.06489372 -5.311374187
vn 0.9999909997 1.227246582e-16 0.004245669115
v 0.773291409 -3.762837887 -10.15282345
vn 0.9999909997 1.227246582e-16 0.004245669115
v 0.7269044518 18.68967247 0.7727900743
vn 0.9997853637 0.01929560676 0.007547290064
v 0.6977940202 -17.51616859 7.629236698
vn 0.9942188263 -0.1050527245 0.02220126614
v 0.6946444511 17.38920784 8.371056557
vn 0.1574641466 0.9707560539 0.18121171
v 0.6919964552 17.03063583 8.994737625
vn 0.9994124174 0.02771018445 0.02017459273
v 0.6645140648 13.30913162 15.46772099
vn 0.164670676 0.8473890424 0.5047924519
v 0.6628193855 12.79511642 15.86688137
vn 0.9996899962 0.01313160453 0.02115452103
v 0.6443815827 7.202857018 20.20956421
vn 0.1759710163 0.5906710625 0.7874909043
v 0.6438035965 6.613927364 20.34571075
vn 0.9985691309 0.01111242641 0.05230896175
v 0.637311995 1.200000042e-05 21.87468147
vn 0.1857741475 0.2041123509 0.9611587524
v 0.6378847361 -0.5835028887 21.73978996
vn 0.994773984 -0.02206884697 0.09968792647
v 0.6443815827 -7.202833652 20.20957375
vn 0.3552260995 -0.2429054826 0.9026690125
v 0.6460333467 -7.70383215 19.82052422
vn 0.9987406135 -0.02867681161 0.04116882011
v 0.6645140052 -13.30911255 15.46774101
vn 0.3404729366 -0.6008581519 0.7232203484
v 0.6670665741 -13.65476799 14.86652946
vn 0.9985428452 -0.04484336451 0.03002134152
v 0.6946443319 -17.38920021 8.371080399
vn 0.3229366243 -0.8344344497 0.4465770125
v 0.7301855087 -18.82193565 9.273330193e-08
vn 0.3120274544 -0.9407910705 0.1324804276
v 0.7107918859 -11.54109001 4.567822456
vn 0.9999909997 1.227246582e-16 0.004245669115
v 0.6891639233 -4.74275732 9.661891937
vn 0.9999909997 1.227246582e-16 0.004245669115
v 0.7959330678 3.29827404 -15.48565483
vn 0.9999909997 1.227246582e-16 0.004245669115
v 0.7548057437 7.584506989 -5.798855782
vn 0.9999909997 1.227246582e-16 0.004245669115
v 0.7045183182 6.651982307 6.04543972
vn 0.9999909997 1.227246582e-16 0.004245669115
v -24.86859512 3.292052984 -1.363616943
vn -0.9959400892 -0.08945605904 -0.01005033683
v -24.86859322 3.563292027 -3.99999999e-06
vn -0.9960127473 -0.08149852604 -0.03628443554
v -24.86859322 2.519628048 -2.519632101
vn -0.9966477156 -0.08018586785 0.01623423211
v -24.86859322 1.363613009 -3.292057037
vn -0.9975242615 -0.05977935344 0.03703800216
v -24.86859322 6.971685256e-24 -3.56329608
vn -0.9980970025 -0.03404799104 0.05141149834
v -24.86859322 -1.363612056 -3.292057037
vn -0.9981885552 -0.005215946585 0.05993699655
v -24.86859322 -2.519627094 -2.519633055
vn -0.9977390766 0.02617974952 0.06189792603
v -24.86859512 -3.292052031 -1.363616943
vn -0.9968448281 0.05754834786 0.05466790125
v -24.86859512 -3.563292027 -3.99999999e-06
vn -0.9960127473 0.08149834722 0.0362851508
v -24.86859322 -3.292052031 1.363608956
vn -0.9959400892 0.08945591748 0.01005031634
v -24.86859512 -2.519627094 2.519623995
vn -0.9966477752 0.0801853016 -0.01623466611
v -24.86859512 -1.363610983 3.292048931
vn -0.9975242615 0.0597788766 -0.03703845665
v -24.86859512 1.999999995e-06 3.56328702
vn -0.9980969429 0.03404798359 -0.05141193047
v -24.86859512 1.363615036 3.292047024
vn -0.9981884956 0.005215800833 -0.05993731692
v -24.86859512 2.519629955 2.519620895
vn -0.9977390766 -0.02617868967 -0.06189872324
v -24.86859322 3.292053938 1.363605022
vn -0.9968447685 -0.05754842982 -0.05466841906
v 9.993033245e-07 17.38920021 -8.371077538
vn 4.083263505e-08 0.9419611096 -0.3357220292
v 0.7657266855 -17.38920021 -8.371082306
vn 0.3116958439 -0.9310982823 -0.1894773841
v 0.7958570123 -13.30911255 -15.46774101
vn 0.3217211068 -0.8036417961 -0.5006549358
v 0.8159894347 -7.202837944 -20.20957184
vn 0.3375560045 -0.5462294221 -0.7666090131
v 0.8230590224 3.99999999e-06 -21.87468147
vn 0.3493681252 -0.1688617021 -0.9216439724
v 0.8159894347 7.202845573 -20.20956993
vn 0.1809688359 0.243356809 -0.95290488
v 0.7958570123 13.30911827 -15.46773624
vn 0.171880275 0.6200214624 -0.7655262947
v 0.7301855087 18.82193565 9.273355772e-08
vn 0.1565879285 0.9760125875 -0.1512600183
v 0.7622858882 17.52790451 -7.560671806
vn 0.9992634654 0.03830303252 -0.002313105622
v -2.009650188e-06 13.30913162 15.46772099
vn -9.478105056e-08 0.7580195069 0.6522318721
v -2.995341902e-06 1.200000042e-05 21.87468147
vn -2.375667805e-07 6.63212063e-07 1
v -1.023958475e-06 -13.30911255 15.46774101
vn -9.478118557e-08 -0.7580186129 0.652232945
v 1.984994924e-06 -18.82193565 1.80854046e-23
vn -5.416912182e-19 -1 -4.678890164e-09
v 4.008256838e-06 -13.30911255 -15.46774101
vn 1.070389715e-07 -0.7580186129 -0.652232945
v 4.993948551e-06 3.99999999e-06 -21.87468147
vn 2.422332557e-07 1.326956607e-07 -1
v 1.361170376e-08 18.82193565 -1.80854046e-23
vn 9.467917444e-14 1 -4.557002455e-07
v -26.11811829 3.324973106 5.269309998
vn -0.9077048302 0.09461162984 0.4088037908
v -27.12187576 5.207420826 0.2095279992
vn -0.9884986877 -0.1512294561 -1.077911023e-07
v -26.76617432 7.752714157 0.2441090047
vn -0.9903758168 0.1384044737 -4.679908727e-08
v -26.76617432 6.891666889 -1.166098952
vn -0.9799287319 0.0491653271 -0.193190068
v -26.76617432 6.891667843 1.654314995
vn -0.9807000756 0.04362659156 0.1905888766
v -26.68243599 -3.522466183 -2.223478079
vn -0.999084115 0.03960748762 0.01619076356
v -25.81295204 -3.908096075 -4.561521053
vn -0.9004884958 -0.2950392663 -0.3194876313
# mm_gid 0
g mmGroup0
f 17//17 18//18 19//19 
f 18//18 20//20 19//19 
f 20//20 21//21 19//19 
f 21//21 22//22 19//19 
f 22//22 23//23 19//19 
f 23//23 24//24 19//19 
f 24//24 25//25 19//19 
f 25//25 26//26 19//19 
f 26//26 27//27 19//19 
f 27//27 28//28 19//19 
f 28//28 29//29 19//19 
f 29//29 30//30 19//19 
f 30//30 31//31 19//19 
f 31//31 32//32 19//19 
f 32//32 33//33 19//19 
f 33//33 17//17 19//19 
f 31//31 30//30 34//34 
f 35//35 36//36 37//37 
f 18//18 38//38 20//20 
f 33//33 32//32 39//39 
f 23//23 22//22 40//40 
f 41//41 40//40 42//42 
f 43//43 44//44 45//45 
f 43//43 45//45 46//46 
f 47//47 48//48 44//44 
f 47//47 44//44 43//43 
f 49//49 50//50 48//48 
f 49//49 48//48 47//47 
f 51//51 52//52 50//50 
f 51//51 50//50 49//49 
f 53//53 54//54 52//52 
f 53//53 52//52 51//51 
f 55//55 56//56 54//54 
f 55//55 54//54 53//53 
f 57//57 58//58 56//56 
f 57//57 56//56 55//55 
f 59//59 60//60 58//58 
f 59//59 58//58 57//57 
f 61//61 62//62 60//60 
f 61//61 60//60 59//59 
f 63//63 64//64 62//62 
f 63//63 62//62 61//61 
f 65//65 66//66 64//64 
f 65//65 64//64 63//63 
f 67//67 68//68 66//66 
f 67//67 66//66 65//65 
f 69//69 70//70 68//68 
f 69//69 68//68 67//67 
f 71//71 72//72 70//70 
f 71//71 70//70 69//69 
f 73//73 74//74 72//72 
f 73//73 72//72 71//71 
f 46//46 45//45 74//74 
f 46//46 74//74 73//73 
f 75//75 43//43 46//46 
f 75//75 46//46 76//76 
f 77//77 47//47 43//43 
f 77//77 43//43 75//75 
f 78//78 49//49 47//47 
f 78//78 47//47 77//77 
f 79//79 51//51 49//49 
f 79//79 49//49 78//78 
f 80//80 53//53 51//51 
f 80//80 51//51 79//79 
f 81//81 55//55 53//53 
f 81//81 53//53 80//80 
f 82//82 57//57 55//55 
f 82//82 55//55 81//81 
f 83//83 59//59 57//57 
f 83//83 57//57 82//82 
f 84//84 61//61 59//59 
f 84//84 59//59 83//83 
f 85//85 63//63 61//61 
f 85//85 61//61 84//84 
f 86//86 65//65 63//63 
f 86//86 63//63 85//85 
f 87//87 67//67 65//65 
f 87//87 65//65 86//86 
f 88//88 69//69 67//67 
f 88//88 67//67 87//87 
f 89//89 71//71 69//69 
f 89//89 69//69 88//88 
f 90//90 73//73 71//71 
f 90//90 71//71 89//89 
f 76//76 46//46 73//73 
f 76//76 73//73 90//90 
f 91//91 75//75 76//76 
f 91//91 76//76 92//92 
f 93//93 77//77 75//75 
f 93//93 75//75 91//91 
f 94//94 78//78 77//77 
f 94//94 77//77 93//93 
f 95//95 79//79 78//78 
f 95//95 78//78 94//94 
f 96//96 80//80 79//79 
f 96//96 79//79 95//95 
f 97//97 81//81 80//80 
f 97//97 80//80 96//96 
f 98//98 82//82 81//81 
f 98//98 81//81 97//97 
f 99//99 83//83 82//82 
f 99//99 82//82 98//98 
f 100//100 84//84 83//83 
f 100//100 83//83 99//99 
f 101//101 85//85 84//84 
f 101//101 84//84 100//100 
f 102//102 86//86 85//85 
f 102//102 85//85 101//101 
f 103//103 87//87 86//86 
f 103//103 86//86 102//102 
f 104//104 88//88 87//87 
f 104//104 87//87 103//103 
f 105//105 89//89 88//88 
f 105//105 88//88 104//104 
f 106//106 90//90 89//89 
f 106//106 89//89 105//105 
f 92//92 76//76 90//90 
f 92//92 90//90 106//106 
f 163//163 113//113 111//111 
f 163//163 10//10 113//113 
f 163//163 111//111 155//155 
f 10//10 115//115 114//114 
f 10//10 157//157 115//115 
f 10//10 114//114 113//113 
f 157//157 117//117 116//116 
f 157//157 11//11 117//117 
f 157//157 116//116 115//115 
f 11//11 119//119 118//118 
f 11//11 158//158 119//119 
f 11//11 118//118 117//117 
f 121//121 120//120 12//12 
f 158//158 12//12 120//120 
f 158//158 120//120 119//119 
f 123//123 122//122 159//159 
f 132//132 133//133 45//45 
f 132//132 45//45 44//44 
f 134//134 132//132 44//44 
f 134//134 44//44 48//48 
f 135//135 134//134 48//48 
f 135//135 48//48 50//50 
f 136//136 135//135 50//50 
f 136//136 50//50 52//52 
f 137//137 136//136 52//52 
f 137//137 52//52 54//54 
f 138//138 137//137 54//54 
f 138//138 54//54 56//56 
f 139//139 138//138 56//56 
f 139//139 56//56 58//58 
f 140//140 139//139 58//58 
f 140//140 58//58 60//60 
f 141//141 140//140 60//60 
f 141//141 60//60 62//62 
f 142//142 141//141 62//62 
f 142//142 62//62 64//64 
f 143//143 142//142 64//64 
f 143//143 64//64 66//66 
f 144//144 143//143 66//66 
f 144//144 66//66 68//68 
f 145//145 144//144 68//68 
f 145//145 68//68 70//70 
f 146//146 145//145 70//70 
f 146//146 70//70 72//72 
f 147//147 146//146 72//72 
f 147//147 72//72 74//74 
f 133//133 147//147 74//74 
f 133//133 74//74 45//45 
f 12//12 159//159 122//122 
f 12//12 122//122 121//121 
f 125//125 124//124 13//13 
f 159//159 13//13 124//124 
f 159//159 124//124 123//123 
f 126//126 112//112 160//160 
f 13//13 160//160 112//112 
f 13//13 112//112 125//125 
f 149//149 1//1 14//14 
f 160//160 14//14 1//1 
f 160//160 1//1 126//126 
f 150//150 3//3 161//161 
f 14//14 161//161 3//3 
f 14//14 3//3 149//149 
f 151//151 4//4 15//15 
f 161//161 15//15 4//4 
f 161//161 4//4 150//150 
f 152//152 5//5 162//162 
f 15//15 162//162 5//5 
f 15//15 5//5 151//151 
f 162//162 153//153 6//6 
f 162//162 2//2 153//153 
f 162//162 6//6 152//152 
f 2//2 154//154 7//7 
f 2//2 16//16 154//154 
f 2//2 7//7 153//153 
f 16//16 9//9 8//8 
f 16//16 148//148 9//9 
f 16//16 8//8 154//154 
f 148//148 155//155 156//156 
f 148//148 163//163 155//155 
f 148//148 156//156 9//9 
f 133//133 132//132 18//18 
f 133//133 18//18 17//17 
f 132//132 134//134 20//20 
f 132//132 20//20 18//18 
f 134//134 135//135 21//21 
f 134//134 21//21 20//20 
f 135//135 136//136 22//22 
f 135//135 22//22 21//21 
f 136//136 137//137 23//23 
f 136//136 23//23 22//22 
f 137//137 138//138 24//24 
f 137//137 24//24 23//23 
f 138//138 139//139 25//25 
f 138//138 25//25 24//24 
f 139//139 140//140 26//26 
f 139//139 26//26 25//25 
f 140//140 141//141 27//27 
f 140//140 27//27 26//26 
f 141//141 142//142 28//28 
f 141//141 28//28 27//27 
f 142//142 143//143 29//29 
f 142//142 29//29 28//28 
f 143//143 144//144 30//30 
f 143//143 30//30 29//29 
f 144//144 145//145 31//31 
f 144//144 31//31 30//30 
f 145//145 146//146 32//32 
f 145//145 32//32 31//31 
f 146//146 147//147 33//33 
f 146//146 33//33 32//32 
f 147//147 133//133 17//17 
f 147//147 17//17 33//33 
f 36//36 32//32 31//31 
f 36//36 31//31 34//34 
f 33//33 32//32 36//36 
f 33//33 36//36 35//35 
f 164//164 37//37 36//36 
f 164//164 36//36 34//34 
f 33//33 39//39 165//165 
f 33//33 165//165 17//17 
f 165//165 38//38 18//18 
f 165//165 18//18 17//17 
f 165//165 166//166 167//167 
f 165//165 167//167 38//38 
f 165//165 39//39 168//168 
f 165//165 168//168 166//166 
f 23//23 40//40 41//41 
f 23//23 41//41 24//24 
f 169//169 25//25 24//24 
f 169//169 24//24 41//41 
f 170//170 169//169 41//41 
f 170//170 41//41 42//42 
f 92//92 10//10 163//163 
f 92//92 106//106 10//10 
f 106//106 157//157 10//10 
f 106//106 105//105 157//157 
f 105//105 11//11 157//157 
f 105//105 104//104 11//11 
f 104//104 158//158 11//11 
f 104//104 103//103 158//158 
f 103//103 12//12 158//158 
f 103//103 102//102 12//12 
f 102//102 159//159 12//12 
f 102//102 101//101 159//159 
f 101//101 13//13 159//159 
f 101//101 100//100 13//13 
f 100//100 160//160 13//13 
f 100//100 99//99 160//160 
f 99//99 14//14 160//160 
f 99//99 98//98 14//14 
f 98//98 161//161 14//14 
f 98//98 97//97 161//161 
f 97//97 15//15 161//161 
f 97//97 96//96 15//15 
f 96//96 162//162 15//15 
f 96//96 95//95 162//162 
f 95//95 2//2 162//162 
f 95//95 94//94 2//2 
f 94//94 16//16 2//2 
f 94//94 93//93 16//16 
f 93//93 148//148 16//16 
f 93//93 91//91 148//148 
f 91//91 163//163 148//148 
f 91//91 92//92 163//163 
# mm_gid 3
g mmGroup3
f 130//130 108//108 110//110 
f 108//108 131//131 128//128 
f 130//130 129//129 8//8 
f 1//1 109//109 127//127 
f 107//107 118//118 120//120 
f 128//128 107//107 122//122 
f 3//3 4//4 109//109 
f 129//129 5//5 6//6 
f 128//128 131//131 107//107 
f 110//110 109//109 4//4 
f 108//108 128//128 127//127 
f 127//127 128//128 124//124 
f 114//114 131//131 111//111 
f 118//118 107//107 116//116 
f 130//130 110//110 129//129 
f 111//111 131//131 130//130 
f 7//7 8//8 129//129 
f 122//122 124//124 128//128 
f 114//114 116//116 131//131 
f 110//110 108//108 109//109 
f 108//108 127//127 109//109 
f 108//108 130//130 131//131 
f 110//110 4//4 5//5 
f 1//1 3//3 109//109 
f 129//129 6//6 7//7 
f 156//156 155//155 111//111 
f 111//111 113//113 114//114 
f 112//112 1//1 127//127 
f 114//114 115//115 116//116 
f 124//124 112//112 127//127 
f 116//116 117//117 118//118 
f 118//118 119//119 120//120 
f 156//156 111//111 130//130 
f 122//122 123//123 124//124 
f 120//120 121//121 122//122 
f 124//124 125//125 112//112 
f 112//112 126//126 1//1 
f 8//8 156//156 130//130 
f 3//3 150//150 4//4 
f 4//4 151//151 5//5 
f 5//5 129//129 110//110 
f 1//1 149//149 3//3 
f 5//5 152//152 6//6 
f 6//6 153//153 7//7 
f 156//156 8//8 9//9 
f 7//7 154//154 8//8 
f 107//107 120//120 122//122 
f 131//131 116//116 107//107 
